<?xml version="0.5" encoding="UTF-8" standalone="no"?>
<svg
   height="22.194"
   id="svg1825"
   width="21.9744"
   version="1.1"
   transform='rotate(90)'>
  <g>
    <g class ="fillwhenstill">
      <path
         d="m 10.9872,22.194 c 6.06795,0 10.9872,-4.9685 10.9872,-11.097 C 21.9744,4.9684 17.05515,0 10.9872,0 4.91935,0 0,4.9684 0,11.097 0,17.2255 4.91935,22.194 10.9872,22.194 Z"
         id="path1839"
         style="stroke:none" />
      <path
         d="M 10.9872,11.097"
         id="path1841"
         style="stroke:none" />
    </g>
    <g>
      <path
         d="m 10.9872,19.6357 c 4.6692,0 8.4543,-3.82295 8.4543,-8.5387 0,-4.71585 -3.7851,-8.5387 -8.4543,-8.5387 -4.6691,0 -8.45425,3.82285 -8.45425,8.5387 0,4.71575 3.78515,8.5387 8.45425,8.5387 z"
         id="path1845"
         style="fill:#ffffff;stroke:none" />
      <path
         d="M 10.9872,11.097"
         id="path1847"
         style="fill:#ffffff;stroke:none" />
    </g>
    <g>
      <path
         d="m 9.84815,15.0137 2.47655,-0.0051 V 13.0845 c 0,-0.5219 0.2433,-1.015 0.8943,-1.44205 0.65095,-0.42685 2.4682,-1.29305 2.4682,-3.57045 0,-2.2775 -1.90835,-3.8429 -3.5125,-4.175 -1.6039,-0.3321 -3.34175,-0.1136 -4.575,1.2375 -1.10435,1.20985 -1.33705,2.16685 -1.33705,4.27825 h 2.47455 v -0.49075 c 0,-1.12505 0.13015,-2.3127 1.7375,-2.6375 0.8773,-0.1773 1.6997,0.0979 2.1875,0.575 0.558,0.5456 0.5625,1.775 -0.32665,2.38715 l -1.3948,0.94895 c -0.8136,0.5219 -1.0926,11.0295 -1.0926,1.95695 z"
         id="path1851"
         style="stroke:none" />
      <g>
        <path
           d="m 9.8319,18.5346 v -2.55025 h 2.5106 v 2.55025 z"
           id="path1855"
           style="stroke:none" />
        <path
           d="M 11.0872,17.2595"
           id="path1857"
           style="stroke:none" />
      </g>
    </g>
  </g>
</svg>
