<?xml version="1.0" standalone="no"?>
<!DOCTYPE svg PUBLIC "-//W3C//DTD SVG 20010904//EN"
 "http://www.w3.org/TR/2001/REC-SVG-20010904/DTD/svg10.dtd">
<svg version="1.0" xmlns="http://www.w3.org/2000/svg"
 width="800.000000pt" height="800.000000pt" viewBox="0 0 800.000000 800.000000"
 preserveAspectRatio="xMidYMid meet">
<metadata>
Created by potrace 1.11, written by Peter Selinger 2001-2013
</metadata>
<g transform="translate(0.000000,800.000000) scale(0.100000,-0.100000)"
fill="#000000" stroke="none">
<path d="M0 3995 l0 -3725 4000 0 4000 0 0 3725 0 3725 -4000 0 -4000 0 0
-3725z m1761 2706 c18 -1 28 -5 24 -11 -5 -9 -99 -350 -110 -401 -2 -8 -17
-69 -35 -135 -17 -65 -54 -204 -81 -309 -28 -104 -52 -197 -55 -205 -2 -8 -10
-40 -18 -70 -8 -30 -29 -107 -46 -170 -18 -63 -33 -122 -35 -130 -3 -16 -32
-124 -66 -250 -11 -41 -22 -82 -24 -90 -1 -8 -10 -40 -19 -71 -9 -31 -19 -66
-21 -78 -2 -12 -14 -56 -26 -99 -11 -42 -22 -84 -23 -92 -1 -8 -7 -31 -13 -50
-14 -44 -94 -347 -100 -379 -2 -14 -7 -30 -11 -38 -4 -7 -7 569 -7 1280 l0
1292 35 5 c27 4 457 4 631 1z m5137 -6 c4 -4 7 -173 8 -377 l0 -370 -30 5
c-17 3 -83 19 -146 36 -63 18 -126 34 -140 37 -14 2 -36 9 -50 14 -23 8 -169
46 -207 54 -10 1 -25 5 -33 8 -28 10 -397 109 -420 112 -8 1 -25 6 -37 10 -12
4 -30 9 -40 11 -10 2 -61 16 -113 30 -52 14 -106 28 -120 31 -14 2 -34 8 -45
11 -11 4 -24 8 -30 9 -5 1 -71 18 -145 39 -133 36 -150 41 -190 49 -11 3 -24
7 -28 10 -5 3 -22 8 -38 11 -16 3 -63 14 -104 25 -41 12 -82 22 -90 24 -8 2
-35 9 -60 16 -25 7 -56 14 -69 17 -14 2 -28 6 -33 9 -5 3 -19 7 -33 10 -13 2
-91 23 -172 45 -81 23 -155 42 -163 44 -8 2 -51 13 -95 24 -44 12 -88 24 -98
26 -10 2 -27 7 -37 10 -10 3 -29 8 -41 10 -12 3 -26 8 -30 12 -5 5 629 7 1407
6 779 -1 1419 -5 1422 -8z m-4201 -381 c98 -26 196 -51 218 -57 22 -5 42 -11
44 -13 3 -2 -115 -213 -166 -299 -7 -11 -17 -32 -24 -47 -6 -16 -15 -28 -20
-28 -5 0 -9 -4 -9 -9 0 -5 -40 -80 -90 -166 -49 -86 -90 -161 -90 -166 0 -5
-3 -9 -7 -9 -5 0 -19 -23 -32 -50 -14 -28 -29 -50 -33 -50 -4 0 -8 -5 -8 -11
0 -6 -17 -41 -39 -77 -21 -37 -48 -83 -59 -103 -42 -75 -47 -84 -52 -89 -3 -3
-15 -23 -27 -45 -21 -40 -46 -85 -82 -149 -11 -19 -31 -52 -44 -73 -13 -21
-27 -48 -31 -60 -4 -13 -12 -23 -17 -23 -5 0 -9 -5 -9 -11 0 -14 -81 -151 -87
-146 -2 2 1 16 7 31 10 28 58 211 66 255 3 14 8 29 11 34 3 6 8 20 9 31 2 12
22 89 45 171 39 145 57 214 64 245 2 8 4 15 5 15 1 0 3 7 5 15 1 8 8 35 15 60
7 25 14 53 16 62 5 22 4 19 59 223 25 94 47 179 49 190 3 11 5 20 7 20 1 0 3
9 5 20 1 11 15 63 29 115 15 52 28 102 30 110 3 16 23 94 31 123 3 10 12 16
19 13 8 -3 94 -26 192 -52z m719 -425 c3 -6 21 -17 38 -25 17 -8 49 -25 71
-39 22 -13 57 -34 77 -45 l38 -20 -24 -28 c-14 -15 -33 -37 -43 -48 -54 -64
-114 -132 -134 -155 -13 -15 -35 -40 -49 -56 -42 -50 -134 -156 -150 -173 -8
-9 -40 -45 -70 -81 -30 -35 -60 -68 -66 -74 -6 -5 -53 -59 -104 -120 -52 -60
-99 -115 -104 -121 -6 -6 -30 -33 -53 -61 -24 -27 -54 -62 -67 -76 -14 -15
-37 -42 -52 -62 -14 -19 -31 -35 -38 -35 -7 0 -7 3 -1 8 11 7 23 28 58 95 11
23 23 44 26 47 4 3 13 19 21 35 8 17 19 37 26 45 6 8 24 40 40 70 16 30 32 57
37 58 4 2 7 7 7 12 0 4 25 52 56 106 31 55 66 117 78 139 12 22 27 46 33 53 7
7 16 24 19 38 3 13 10 24 15 24 5 0 9 4 9 9 0 7 30 62 60 111 18 29 96 165
103 180 4 8 21 38 37 65 16 28 36 61 42 75 16 31 40 60 50 60 4 0 10 -5 14
-11z m1266 -99 c43 -12 85 -23 95 -25 10 -2 70 -18 133 -35 63 -17 131 -35
150 -40 39 -9 145 -37 265 -70 44 -12 91 -24 105 -26 14 -3 32 -7 40 -10 8 -3
49 -15 90 -26 41 -10 109 -28 150 -40 41 -11 91 -24 110 -28 34 -9 158 -41
230 -61 19 -5 42 -11 50 -13 8 -2 60 -16 115 -31 55 -15 127 -33 160 -41 32
-8 60 -16 62 -18 2 -1 -9 -47 -23 -102 -14 -54 -28 -108 -31 -119 -5 -25 -9
-36 -16 -55 -3 -8 -18 -65 -33 -126 l-27 -110 -124 70 c-163 93 -190 109 -240
137 -23 13 -97 55 -165 94 -68 38 -131 74 -141 80 -9 5 -99 57 -199 115 -100
58 -197 114 -217 125 -20 11 -67 39 -106 61 -38 23 -97 57 -131 75 -256 143
-413 235 -414 242 0 5 8 6 18 3 9 -3 52 -15 94 -26z m-816 -446 c12 -11 34
-30 49 -42 l28 -22 -28 -22 c-16 -12 -39 -32 -51 -43 -12 -11 -37 -32 -55 -45
-18 -14 -49 -39 -68 -57 -20 -18 -46 -40 -58 -50 -12 -10 -41 -34 -64 -53 -24
-19 -55 -46 -70 -60 -15 -14 -40 -34 -55 -45 -15 -11 -32 -25 -38 -30 -6 -6
-38 -33 -71 -60 -33 -28 -62 -52 -65 -55 -3 -3 -48 -41 -100 -85 -82 -69 -102
-78 -50 -24 8 9 38 42 65 75 28 32 70 81 95 109 25 28 70 80 100 115 30 35 65
74 77 87 11 13 35 42 53 63 18 21 42 50 53 63 25 27 57 64 141 160 63 73 59
72 112 21z m744 -142 c30 -19 56 -34 58 -33 1 1 12 -5 25 -12 24 -16 415 -239
487 -279 42 -23 71 -40 153 -87 17 -10 55 -31 82 -48 28 -16 57 -32 65 -36 8
-4 30 -16 49 -28 81 -49 293 -169 299 -169 4 0 15 -7 26 -15 18 -14 15 -20
-58 -150 -43 -74 -80 -135 -84 -135 -4 0 -25 16 -47 36 -22 20 -57 50 -79 67
-21 18 -51 43 -66 57 -15 14 -54 48 -86 75 -131 113 -342 296 -369 322 -11 10
-49 43 -84 73 -36 30 -72 62 -81 70 -46 42 -270 235 -339 293 -73 61 -82 72
-41 52 19 -10 60 -34 90 -53z m-542 -320 c19 -23 33 -44 31 -46 -6 -5 -128
-66 -137 -68 -4 -1 -45 -19 -92 -41 -47 -22 -118 -54 -158 -73 -41 -19 -78
-34 -83 -34 -5 0 -9 -4 -9 -8 0 -4 -12 -13 -27 -19 -16 -6 -55 -22 -88 -37
-33 -15 -51 -20 -40 -11 19 14 97 80 119 100 6 6 52 44 101 85 50 41 95 79
101 85 6 5 28 24 49 40 21 17 44 36 52 44 8 7 32 29 55 48 l41 34 25 -28 c13
-15 40 -47 60 -71z m373 -36 c26 -22 72 -63 104 -91 32 -27 70 -60 84 -72 14
-13 31 -27 37 -32 6 -5 49 -42 95 -83 47 -40 109 -93 138 -118 30 -25 61 -52
70 -61 9 -8 52 -46 96 -84 44 -38 85 -74 91 -80 6 -5 43 -37 82 -70 l70 -59
-41 -49 c-23 -27 -54 -62 -68 -79 l-25 -30 -75 88 c-41 49 -83 100 -94 113
-11 13 -27 31 -35 40 -8 9 -35 41 -60 71 -25 30 -47 57 -50 60 -3 3 -25 30
-50 60 -24 30 -60 73 -80 95 -19 23 -53 63 -75 90 -22 27 -44 53 -50 60 -5 6
-33 37 -60 70 -28 33 -89 105 -135 160 -82 96 -75 96 31 1z m-254 -339 c-2 -6
-25 -12 -53 -13 -166 -8 -237 -13 -241 -18 -3 -2 -16 -1 -29 4 -13 5 -26 6
-28 1 -3 -5 -16 -8 -28 -7 -13 1 -33 -1 -46 -6 -14 -5 -21 -4 -17 2 4 7 192
102 220 111 2 1 39 18 81 38 l78 38 33 -70 c19 -39 32 -75 30 -80z m258 -72
c22 -26 45 -53 50 -59 6 -6 44 -51 85 -101 41 -49 85 -101 96 -115 12 -14 58
-68 103 -120 44 -52 81 -98 81 -102 0 -4 -21 -24 -47 -45 -27 -21 -55 -45 -63
-53 -46 -46 -47 -45 -78 22 -16 35 -55 117 -86 183 -32 66 -61 129 -66 140 -5
11 -46 97 -90 190 -84 176 -83 177 15 60z m-910 -136 c3 -41 7 -127 10 -192 3
-65 7 -134 9 -153 1 -19 0 -34 -4 -34 -3 0 -20 30 -37 68 -17 37 -57 120 -87
185 -59 125 -63 137 -45 137 6 0 38 13 69 29 32 16 61 27 64 24 3 -4 6 0 6 7
0 7 2 11 5 8 3 -3 8 -39 10 -79z m660 26 c0 -39 -3 -49 -15 -47 -8 2 -24 5
-35 7 -11 2 -33 6 -50 9 -47 9 -237 44 -269 50 -42 8 -44 16 -5 17 79 2 182 8
184 11 2 2 45 3 97 3 l93 0 0 -50z m-501 3 c-3 -13 -7 -36 -10 -53 -9 -59 -32
-150 -33 -135 -1 8 -4 59 -7 113 l-4 97 29 0 c26 0 29 -3 25 -22z m-484 -60
c0 -4 18 -45 39 -90 114 -242 131 -278 132 -283 0 -2 26 -58 59 -124 33 -66
67 -137 77 -158 9 -21 19 -42 22 -48 4 -9 -9 5 -74 84 -11 13 -29 33 -40 45
-11 12 -31 34 -43 51 -13 16 -45 54 -70 84 -52 59 -72 83 -117 137 -16 19 -43
50 -58 67 -56 64 -118 147 -110 147 7 0 42 28 127 102 27 24 31 25 43 10 7
-10 13 -20 13 -24z m671 -9 c9 -4 18 -6 21 -4 2 3 51 -5 109 -16 57 -12 113
-22 124 -24 11 -1 24 -3 28 -4 6 -1 3 -76 -3 -76 -2 0 -6 -21 -14 -69 -4 -21
-8 -48 -11 -60 -5 -21 -10 -50 -21 -116 -8 -48 -10 -49 -47 -42 -17 3 -42 6
-54 6 -13 1 -23 3 -23 6 0 3 -10 6 -22 7 -19 2 -77 12 -98 18 -3 1 -30 5 -60
10 -30 5 -58 10 -62 11 -5 1 -18 2 -29 3 -22 1 -23 7 -5 96 2 11 9 52 16 92
15 93 18 108 21 108 1 0 2 11 3 25 3 44 13 51 64 44 26 -3 54 -10 63 -15z
m588 -334 c29 -61 44 -101 37 -103 -6 -2 -44 -20 -84 -39 -40 -19 -75 -33 -78
-30 -7 6 -13 83 -19 207 -2 52 -6 140 -9 195 l-6 100 55 -115 c31 -63 77 -160
104 -215z m-1620 85 c4 -3 16 -17 26 -31 25 -32 123 -145 153 -176 12 -13 22
-28 22 -33 0 -5 6 -13 13 -17 7 -4 28 -28 47 -53 19 -25 37 -47 40 -50 3 -3
41 -48 85 -100 44 -52 82 -97 85 -100 6 -6 97 -113 126 -148 10 -13 32 -38 47
-55 30 -35 76 -97 61 -84 -5 5 -38 34 -73 65 -36 32 -77 68 -92 82 -15 14 -44
38 -65 55 -20 16 -51 43 -69 60 -17 16 -51 46 -75 66 -25 20 -56 47 -70 60
-14 13 -41 37 -60 53 -41 33 -133 112 -205 176 -28 25 -82 72 -120 105 -38 33
-82 71 -97 85 l-28 25 36 40 c19 22 49 57 66 77 l31 37 55 -67 c30 -37 57 -69
61 -72z m4057 -1345 l0 -1375 -369 0 c-346 0 -368 1 -363 18 13 42 89 338 90
352 0 8 3 17 6 20 3 3 13 37 23 75 9 39 28 113 43 165 14 52 28 103 30 113 2
9 7 27 10 40 3 12 7 29 9 37 2 8 4 15 5 15 2 0 5 12 13 50 4 17 85 317 144
535 8 30 16 62 18 70 2 8 17 69 35 135 18 66 65 246 106 400 41 154 77 287 78
295 4 16 43 161 82 310 14 52 26 101 27 108 0 6 3 12 6 12 4 0 7 -619 7 -1375z
m-2680 1207 l5 -102 -32 0 c-27 0 -31 3 -26 23 3 12 11 51 17 87 7 36 14 72
15 80 2 8 4 17 4 19 1 2 3 2 6 -1 3 -2 7 -50 11 -106z m-1866 -133 c47 -41
110 -95 140 -121 30 -26 66 -56 80 -68 14 -12 54 -47 89 -78 35 -31 69 -60 77
-65 7 -4 28 -22 46 -40 53 -49 192 -171 266 -233 13 -10 36 -30 51 -44 15 -14
49 -44 76 -67 87 -74 197 -169 243 -210 14 -13 20 -23 15 -23 -6 0 -16 7 -23
15 -7 8 -16 15 -21 15 -5 0 -43 20 -83 45 -41 25 -79 45 -85 45 -6 0 -11 3
-11 8 0 4 -17 15 -37 25 -21 10 -55 28 -75 40 -48 28 -465 267 -492 281 -12 6
-40 24 -63 39 -24 15 -46 27 -50 27 -5 0 -24 10 -43 23 -19 13 -60 37 -90 52
-30 16 -62 34 -70 41 -8 6 -40 25 -70 41 -30 16 -81 44 -112 62 l-57 33 31 56
c17 31 40 69 50 84 10 14 18 29 18 33 0 3 14 28 32 55 l32 50 26 -23 c14 -13
63 -57 110 -98z m1380 98 c47 -10 145 -30 160 -32 8 -1 32 -6 53 -10 28 -5 37
-4 37 6 0 11 2 11 10 -1 5 -8 17 -16 27 -17 55 -6 63 -8 63 -15 0 -4 -12 -8
-27 -9 -104 -2 -376 -20 -384 -24 -3 -3 -7 22 -8 54 -2 63 0 64 69 48z m363
-201 c-10 -7 -39 -21 -65 -32 -27 -10 -48 -22 -48 -26 0 -5 -5 -8 -11 -8 -10
0 -43 -14 -159 -69 l-64 -31 -33 72 c-18 39 -33 74 -33 78 0 4 17 7 38 7 41
-1 285 13 288 16 2 1 26 3 54 4 44 1 49 -1 33 -11z m785 -25 c-7 -10 -33 -41
-58 -68 -25 -28 -63 -71 -85 -97 -65 -78 -108 -127 -135 -156 -14 -15 -41 -47
-61 -71 -42 -50 -79 -92 -112 -129 -13 -14 -52 -59 -87 -100 -35 -41 -71 -82
-80 -91 -8 -9 -33 -38 -55 -64 -22 -27 -57 -67 -77 -89 -21 -23 -38 -45 -38
-49 0 -4 -17 7 -37 26 -21 19 -55 49 -77 69 l-39 34 59 50 c33 27 66 57 75 66
9 10 19 18 23 18 3 0 14 8 24 18 10 9 42 37 72 62 30 25 64 54 75 65 12 11 46
39 76 62 30 23 65 52 79 65 14 13 50 43 80 68 30 25 66 55 80 67 109 94 306
262 308 263 2 0 -3 -8 -10 -19z m-445 -29 c-56 -48 -117 -100 -153 -130 -296
-250 -383 -322 -388 -321 -4 0 -35 35 -70 77 l-63 77 128 61 c133 64 213 101
373 175 52 24 117 56 145 71 59 32 72 27 28 -10z m1507 -114 c-12 -46 -23 -90
-25 -98 -3 -8 -12 -42 -21 -75 -9 -33 -18 -67 -20 -75 -4 -19 -78 -297 -99
-375 -9 -33 -18 -68 -21 -77 -9 -38 -14 -59 -18 -75 -2 -10 -18 -68 -35 -129
-16 -61 -32 -122 -35 -135 -3 -13 -19 -76 -36 -139 -17 -63 -62 -231 -100
-374 -38 -142 -71 -261 -74 -263 -3 -3 -53 8 -113 25 -59 16 -174 47 -255 68
l-147 39 31 55 c17 30 45 80 61 110 17 30 33 57 36 60 3 3 16 23 28 45 11 22
30 56 42 75 11 19 24 41 27 49 4 7 30 52 57 100 28 47 58 101 68 119 9 18 23
39 29 47 7 8 9 15 4 15 -5 0 -4 4 2 8 8 6 217 362 309 527 12 22 81 142 152
268 72 125 128 227 124 227 -3 0 1 5 9 10 8 5 15 13 16 17 2 16 17 44 21 39 3
-2 -5 -42 -17 -88z m-612 74 c-1 -4 -28 -50 -59 -102 -60 -102 -81 -138 -156
-269 -26 -47 -63 -110 -80 -140 -18 -31 -36 -63 -40 -71 -4 -8 -24 -43 -45
-77 -21 -35 -34 -63 -30 -63 4 0 2 -4 -4 -8 -5 -4 -39 -58 -75 -120 -35 -62
-71 -125 -80 -140 -19 -33 -62 -108 -106 -187 -36 -64 -91 -159 -108 -187 -9
-15 -25 -9 -139 57 -71 41 -133 75 -137 75 -17 0 -8 24 20 54 17 17 87 99 158
181 70 83 137 159 148 170 11 11 40 45 65 75 25 30 63 75 86 100 23 25 74 83
114 130 40 47 77 87 81 88 5 2 9 8 9 14 0 5 9 17 19 26 11 10 54 58 96 107 80
93 155 181 190 221 11 13 29 34 40 48 19 23 41 36 33 18z m-3559 -377 c13 -10
83 -50 171 -98 25 -14 59 -33 77 -43 33 -20 244 -141 278 -160 11 -6 43 -24
70 -41 28 -16 57 -32 65 -36 8 -4 31 -17 50 -28 138 -83 290 -169 299 -169 6
0 11 -4 11 -10 0 -5 5 -10 10 -10 6 0 40 -18 76 -40 36 -22 68 -40 70 -40 2 0
33 -18 69 -40 36 -22 67 -40 70 -40 2 0 28 -14 57 -31 59 -35 101 -60 168 -97
25 -14 62 -36 82 -49 21 -12 42 -23 48 -23 5 0 10 -4 10 -9 0 -5 12 -12 28
-16 15 -4 22 -9 15 -12 -6 -2 -38 3 -70 12 -61 17 -318 84 -343 91 -14 3 -65
16 -335 89 -99 26 -116 31 -155 39 -11 3 -24 7 -29 11 -5 3 -22 7 -38 9 -15 2
-147 36 -293 75 -146 40 -272 73 -280 75 -8 2 -22 6 -30 9 -8 3 -71 20 -140
37 -69 17 -132 34 -140 37 -8 3 -19 7 -25 7 -5 1 -33 7 -62 15 -44 11 -51 15
-43 29 6 10 18 51 29 92 11 41 36 138 56 215 21 77 39 147 40 155 2 8 4 17 6
20 2 6 6 21 8 33 1 8 90 -35 120 -58z m-614 -1120 c14 -3 26 -5 27 -3 2 1 13
-4 24 -10 12 -6 34 -14 50 -17 16 -3 72 -16 124 -30 52 -14 102 -27 110 -30
182 -47 359 -94 495 -130 94 -25 177 -47 185 -49 8 -2 51 -14 95 -25 44 -12
88 -24 97 -26 16 -4 217 -57 283 -76 17 -4 64 -17 105 -28 126 -32 260 -68
481 -127 116 -30 223 -58 237 -60 14 -3 29 -7 34 -10 4 -3 16 -7 25 -9 10 -1
45 -10 78 -19 33 -9 71 -19 85 -22 14 -3 56 -14 95 -25 38 -11 79 -22 90 -25
147 -33 164 -32 -1336 -33 l-1455 -1 0 385 0 384 23 -4 c13 -3 34 -7 48 -10z"/>
</g>
</svg>
